<?xml version="1.0" encoding="utf-8"?>
<!-- Generator: Adobe Illustrator 18.0.0, SVG Export Plug-In . SVG Version: 6.00 Build 0)  -->
<!DOCTYPE svg PUBLIC "-//W3C//DTD SVG 1.1//EN" "http://www.w3.org/Graphics/SVG/1.1/DTD/svg11.dtd">
<svg version="1.1" id="Layer_1" xmlns="http://www.w3.org/2000/svg" xmlns:xlink="http://www.w3.org/1999/xlink" x="0px" y="0px"
	 viewBox="0 0 30 60" enable-background="new 0 0 30 60" xml:space="preserve">
<path fill="#F2EBDE" fill-opacity="0" d="M0,0h30v60H0V0z"/>
<path fill="none" stroke="#ADA89E" stroke-miterlimit="10" stroke-opacity="0" d="M0.5,60V0"/>
<g>
	<path fill="#777777" d="M10.9,28.6c-0.1-0.1-0.1-0.2-0.1-0.3s0-0.2,0.1-0.3l0.4-0.4c0.1-0.1,0.2-0.1,0.3-0.1s0.2,0,0.3,0.1l3,3l3-3
		c0.1-0.1,0.2-0.1,0.3-0.1s0.2,0.1,0.3,0.1l0.4,0.4c0.1,0.1,0.1,0.2,0.1,0.3s0,0.2-0.1,0.3l-3.8,3.8c-0.1,0.1-0.2,0.2-0.3,0.2
		s-0.2-0.1-0.3-0.2L10.9,28.6z"/>
</g>
</svg>
